<svg width="30" height="30" viewBox="0 0 30 30" fill="none" xmlns="http://www.w3.org/2000/svg">
<circle cx="15" cy="15" r="15" fill="#3C65F5"/>
<path d="M10.204 11.296C9.85867 11.296 9.56933 11.1887 9.336 10.974C9.112 10.75 9 10.4747 9 10.148C9 9.82133 9.112 9.55067 9.336 9.336C9.56933 9.112 9.85867 9 10.204 9C10.5493 9 10.834 9.112 11.058 9.336C11.2913 9.55067 11.408 9.82133 11.408 10.148C11.408 10.4747 11.2913 10.75 11.058 10.974C10.834 11.1887 10.5493 11.296 10.204 11.296ZM11.17 12.22V19.976H9.21V12.22H11.17Z" fill="white"/>
<path d="M17.4045 12.108C18.3285 12.108 19.0752 12.402 19.6445 12.99C20.2138 13.5687 20.4985 14.3807 20.4985 15.426V19.976H18.5385V15.692C18.5385 15.076 18.3845 14.6047 18.0765 14.278C17.7685 13.942 17.3485 13.774 16.8165 13.774C16.2752 13.774 15.8458 13.942 15.5285 14.278C15.2205 14.6047 15.0665 15.076 15.0665 15.692V19.976H13.1065V12.22H15.0665V13.186C15.3278 12.85 15.6592 12.5887 16.0605 12.402C16.4712 12.206 16.9192 12.108 17.4045 12.108Z" fill="white"/>
</svg>
