<svg width="30" height="30" viewBox="0 0 30 30" fill="none" xmlns="http://www.w3.org/2000/svg">
<circle cx="15" cy="15" r="15" fill="#3C65F5"/>
<path d="M23.3715 10.2816C22.7627 10.5298 22.114 10.6944 21.4376 10.7743C22.1334 10.3881 22.6645 9.78133 22.9141 9.04994C22.2654 9.40945 21.5491 9.6634 20.7858 9.80511C20.1698 9.19546 19.2919 8.81787 18.3342 8.81787C16.476 8.81787 14.9801 10.2198 14.9801 11.9384C14.9801 12.1857 15.0026 12.4235 15.0578 12.6498C12.2675 12.5234 9.7985 11.2803 8.13987 9.38663C7.85029 9.85362 7.68044 10.3881 7.68044 10.9636C7.68044 12.044 8.27902 13.0018 9.17127 13.5562C8.63203 13.5467 8.10303 13.4012 7.65486 13.172C7.65486 13.1815 7.65486 13.1939 7.65486 13.2062C7.65486 14.7223 8.81826 15.9815 10.3439 16.2716C10.0707 16.3411 9.77292 16.3744 9.46391 16.3744C9.24903 16.3744 9.03211 16.3629 8.82849 16.3211C9.26336 17.5566 10.4974 18.4649 11.9647 18.4944C10.8227 19.3247 9.37284 19.8249 7.80323 19.8249C7.52798 19.8249 7.26399 19.8135 7 19.7821C8.48674 20.6733 10.2487 21.1822 12.1488 21.1822C18.325 21.1822 21.7016 16.4267 21.7016 12.3046C21.7016 12.1667 21.6965 12.0335 21.6893 11.9013C22.3554 11.4619 22.9151 10.9131 23.3715 10.2816Z" fill="white"/>
</svg>
