<svg width="76" height="21" viewBox="0 0 76 21" fill="none" xmlns="http://www.w3.org/2000/svg">
<g clip-path="url(#clip0_21_2574)">
<path fill-rule="evenodd" clip-rule="evenodd" d="M60.4139 1.02157H66.5936L65.8626 4.61342C67.7531 1.67272 69.9166 0.807316 72.5842 0.626673C73.6046 0.619352 74.6237 0.700879 75.6299 0.870331L74.441 5.58805C73.4877 5.33364 72.5077 5.19263 71.5213 5.16795C67.8665 5.10493 65.1526 7.57091 64.2116 11.1039L62.0775 19.2035H55.6626C57.2464 13.1456 59.3469 6.53747 60.4139 1.02577V1.02157Z" fill="#3C65F5"/>
<path fill-rule="evenodd" clip-rule="evenodd" d="M42.8327 9.09587C43.8998 8.57915 47.6134 8.63376 50.0206 8.33129C52.7891 7.99521 56.6582 6.47025 56.5658 4.1555C56.4145 1.68952 54.2216 1.13079 52.1799 1.40385C47.374 2.10542 44.2358 5.25616 42.8327 9.09587ZM42.2362 10.667C42.0803 11.6771 42.0254 12.7002 42.0723 13.7212C42.4672 16.7333 45.1097 18.1448 47.9537 18.2372C50.3147 18.2918 53.1882 16.8803 54.7509 15.1243C54.7997 15.0562 54.8647 15.0014 54.9401 14.965C55.0155 14.9286 55.0989 14.9117 55.1825 14.9158C55.2661 14.92 55.3474 14.9451 55.4188 14.9889C55.4902 15.0327 55.5494 15.0937 55.5911 15.1663C55.6569 15.2909 55.6874 15.4312 55.6792 15.5718C55.6711 15.7125 55.6246 15.8483 55.5449 15.9645C53.0747 18.4221 50.5499 19.779 47.0337 19.8084C43.047 19.8378 38.052 18.317 37.4428 14.1749C37.355 13.6415 37.3437 13.0983 37.4092 12.5617C38.2116 4.89067 45.2105 0.744294 52.0959 0.378807C55.3853 0.198165 60.1324 1.05097 59.8593 4.61341C59.5863 8.36069 53.9233 9.6546 50.2349 9.75962C47.1303 9.85205 43.3074 9.83944 42.253 10.667H42.2362Z" fill="#3C65F5"/>
<path fill-rule="evenodd" clip-rule="evenodd" d="M38.804 14.9983L37.7916 18.9598C35.7944 19.4012 33.7538 19.6154 31.7085 19.5984C25.5583 19.4765 21.0506 16.6577 21.3237 10.7973C21.6597 4.0757 28.3309 0.626682 34.7668 0.534261C36.8656 0.522759 38.9578 0.768243 40.9969 1.26523L39.0813 5.07133C37.4037 4.56739 35.6489 4.37098 33.9014 4.4916C30.9607 4.70585 28.2385 6.28962 27.4445 9.39415C26.4111 13.2927 28.6628 16.0359 32.6537 16.0359C34.7438 15.9957 36.8164 15.646 38.804 14.9983Z" fill="#3C65F5"/>
<path fill-rule="evenodd" clip-rule="evenodd" d="M12.7956 0.593068C17.946 0.593068 21.8194 1.77775 22.189 6.05436C22.3319 7.69695 21.7353 9.16309 21.2774 10.8981L19.1307 19.2329C15.0221 19.2329 11.6698 19.3253 7.95607 19.6278C4.51546 19.6278 0.394287 18.8968 0.394287 14.511C0.474106 7.34406 11.5773 7.99522 16.2992 7.99522C17.3033 5.13014 14.9591 3.97487 11.6782 3.97487C8.69545 3.97487 6.23787 4.81507 3.8307 5.61746L4.6709 1.75254C7.30637 0.963989 10.0448 0.573192 12.7956 0.593068ZM15.5977 10.8603C13.0057 10.8603 5.67914 10.247 5.67914 14.2211C5.67914 16.1998 7.75023 16.4938 9.48524 16.4938C14.0475 16.4938 14.7575 14.9017 15.5977 10.8687V10.8603Z" fill="#3C65F5"/>
<path fill-rule="evenodd" clip-rule="evenodd" d="M73.4621 15.515C73.1336 15.5135 72.808 15.5774 72.5044 15.7029C72.2008 15.8284 71.9251 16.013 71.6935 16.2459C71.2172 16.7365 70.9454 17.3898 70.9331 18.0734C70.9414 18.7348 71.203 19.3678 71.6641 19.842C71.8987 20.0808 72.1785 20.2705 72.4872 20.3999C72.7959 20.5294 73.1273 20.5961 73.4621 20.5961C73.7969 20.5961 74.1283 20.5294 74.437 20.3999C74.7457 20.2705 75.0255 20.0808 75.2601 19.842C75.4943 19.6114 75.6794 19.3359 75.8043 19.032C75.9292 18.728 75.9913 18.402 75.9869 18.0734C75.9965 17.7404 75.9368 17.409 75.8117 17.1002C75.6866 16.7914 75.4988 16.512 75.2601 16.2796C75.0254 16.0402 74.7458 15.8494 74.4373 15.7182C74.1287 15.587 73.7974 15.518 73.4621 15.515ZM75.7474 18.0734C75.7475 18.369 75.688 18.6616 75.5725 18.9337C75.457 19.2058 75.2879 19.4518 75.0753 19.6572C74.6455 20.0826 74.0668 20.3238 73.4621 20.3293C72.8617 20.3272 72.2861 20.0898 71.8588 19.668C71.4315 19.2462 71.1867 18.6737 71.1768 18.0734C71.1834 17.4602 71.4238 16.8727 71.8489 16.4308C72.06 16.2177 72.3113 16.0485 72.5882 15.9331C72.8651 15.8178 73.1621 15.7584 73.4621 15.7586C73.765 15.7571 74.0648 15.8187 74.3426 15.9395C74.6203 16.0603 74.8699 16.2376 75.0753 16.4602C75.2903 16.6699 75.4607 16.9209 75.5763 17.1981C75.6918 17.4753 75.75 17.7731 75.7474 18.0734ZM73.5209 16.5526H72.4875V19.4933H72.8824V18.1658H73.6133L74.2519 19.4765H74.7098L74.0418 18.1364C74.2361 18.1256 74.4189 18.0408 74.5526 17.8994C74.6862 17.7579 74.7605 17.5706 74.7602 17.376C74.7602 16.7963 74.3653 16.5358 73.5419 16.5358L73.5209 16.5526ZM73.4621 16.8257C74.0418 16.8257 74.3443 16.9769 74.3443 17.3424C74.3443 17.8003 74.0712 17.9221 73.4621 17.9221H72.8824V16.8257H73.4621Z" fill="#3C65F5"/>
</g>
<defs>
<clipPath id="clip0_21_2574">
<rect width="75.5843" height="20.2446" fill="white" transform="translate(0.40271 0.357788)"/>
</clipPath>
</defs>
</svg>
