<svg width="114" height="21" viewBox="0 0 114 21" fill="none" xmlns="http://www.w3.org/2000/svg">
<g clip-path="url(#clip0_21_2595)">
<path fill-rule="evenodd" clip-rule="evenodd" d="M76.8438 20.1738C76.8437 20.2336 76.8671 20.2911 76.9088 20.3339C76.9505 20.3768 77.0073 20.4016 77.0671 20.4032H82.6383C82.6681 20.4032 82.6976 20.3972 82.7251 20.3856C82.7526 20.374 82.7775 20.357 82.7984 20.3357C82.8192 20.3143 82.8355 20.2889 82.8464 20.2611C82.8572 20.2333 82.8624 20.2037 82.8616 20.1738V0.846708C82.8624 0.817153 82.8572 0.787739 82.8463 0.760267C82.8354 0.732795 82.8189 0.707842 82.798 0.686935C82.7771 0.666029 82.7522 0.649608 82.7247 0.63868C82.6972 0.627751 82.6678 0.622544 82.6383 0.623377H77.0671C77.0079 0.623377 76.951 0.646907 76.9092 0.688789C76.8673 0.730672 76.8438 0.787477 76.8438 0.846708V20.1618V20.1738Z" fill="#3C65F5"/>
<path fill-rule="evenodd" clip-rule="evenodd" d="M50.8409 19.9384L42.638 0.961387C42.6089 0.902198 42.5644 0.851925 42.5091 0.815822C42.4539 0.77972 42.39 0.759116 42.3241 0.756165H34.073C34.0069 0.758469 33.9427 0.778811 33.8874 0.814987C33.8321 0.851163 33.7877 0.901792 33.7591 0.961387L25.5562 19.9384C25.5416 19.96 25.5337 19.9854 25.5335 20.0115C25.5332 20.0375 25.5406 20.0631 25.5548 20.085C25.5689 20.1068 25.5892 20.1241 25.6131 20.1345C25.6369 20.1449 25.6634 20.1481 25.689 20.1436H31.4956C31.5611 20.1391 31.6242 20.1171 31.6783 20.0799C31.7324 20.0428 31.7756 19.9918 31.8035 19.9324L33.0107 16.9989C33.0388 16.9402 33.0822 16.8901 33.1364 16.854C33.1906 16.8179 33.2535 16.7971 33.3185 16.7937H43.1148C43.1793 16.7962 43.2418 16.8167 43.2952 16.853C43.3486 16.8893 43.3906 16.9398 43.4166 16.9989L44.5333 19.9324C44.559 19.9922 44.6008 20.0436 44.6541 20.0809C44.7075 20.1182 44.7701 20.14 44.8351 20.1436H50.702C50.7275 20.1469 50.7534 20.143 50.7768 20.1324C50.8001 20.1218 50.8201 20.105 50.8345 20.0837C50.8489 20.0624 50.8571 20.0376 50.8582 20.012C50.8594 19.9863 50.8533 19.9609 50.8409 19.9384ZM34.6162 12.6953L37.3264 5.63321C37.6463 4.92701 37.93 4.83043 38.2438 4.83043C38.5577 4.83043 38.9078 5.12016 39.1009 5.66943L41.7688 12.6953H34.6162Z" fill="#3C65F5"/>
<path fill-rule="evenodd" clip-rule="evenodd" d="M101.38 0.502625H95.024C87.3342 0.617308 86.1572 3.0679 86.1572 10.2265C86.1572 11.4337 86.1572 12.6409 86.2116 13.8481C86.4228 18.6226 89.0303 20.1014 93.3883 20.4273C94.7524 20.5178 97.9334 20.5782 98.0662 20.5722C98.0662 20.5722 101.645 20.5178 103.01 20.4273C107.368 20.1014 109.975 18.6165 110.186 13.8481C110.247 12.6409 110.247 11.4337 110.247 10.2265C110.247 3.0679 109.04 0.617308 101.38 0.502625ZM104.162 11.0595C104.162 14.3189 103.957 15.5985 100.372 15.683C99.4363 15.7374 96.9676 15.7374 96.032 15.683C92.4407 15.5985 92.2354 14.3189 92.2354 11.0595V10.2567C92.2205 9.48503 92.2507 8.71312 92.326 7.94495C92.6821 5.2167 94.7404 5.3676 96.7443 5.30724C97.4807 5.30724 98.9172 5.30724 99.6597 5.30724C101.676 5.3676 103.722 5.2167 104.078 7.94495C104.148 8.71343 104.176 9.48517 104.162 10.2567V11.0595Z" fill="#3C65F5"/>
<path fill-rule="evenodd" clip-rule="evenodd" d="M18.6029 12.7616C18.4339 14.7777 17.7337 15.6166 14.8546 15.683C13.919 15.7374 11.4503 15.7374 10.5147 15.683C6.92935 15.5985 6.7181 14.3189 6.7181 11.0595V10.2567C6.70317 9.48503 6.7334 8.71312 6.80864 7.94495C7.16476 5.2167 9.22302 5.3676 11.227 5.30724C11.9694 5.30724 13.4059 5.30724 14.1423 5.30724C16.0678 5.36157 18.0174 5.23481 18.5003 7.58883H24.6509C24.2948 2.45224 22.5202 0.5992 15.8626 0.502625H9.50671C1.84708 0.617308 0.639893 3.0679 0.639893 10.2265C0.639893 11.4337 0.639893 12.6409 0.700252 13.8481C0.905474 18.6527 3.51904 20.1315 7.88303 20.4575C9.24716 20.548 12.4221 20.6084 12.5549 20.6023C12.5549 20.6023 16.1342 20.548 17.4983 20.4575C21.8563 20.1315 24.4698 18.6467 24.6751 13.8783C24.6751 13.5041 24.6751 13.1359 24.7173 12.7616H18.6029Z" fill="#3C65F5"/>
<path fill-rule="evenodd" clip-rule="evenodd" d="M58.73 12.6651C60.064 12.6651 61.3677 12.7134 62.7077 12.7255L64.3495 12.7918C65.7136 12.8643 67.7779 12.3693 67.7779 14.6026C67.7779 16.0513 66.3836 16.0814 65.3152 16.1358C63.77 16.1841 63.9994 16.2082 62.4602 16.1961C61.5126 16.1961 61.4341 16.1961 60.4563 16.1539C59.1223 16.0814 58.2351 15.7495 58.1566 14.2646L52.2534 14.2405C52.2534 15.4899 52.175 16.4617 52.8208 17.6266C54.2211 19.9807 57.046 20.4153 59.4604 20.4635L62.3214 20.542C64.603 20.542 67.8564 20.542 69.9629 20.0048C73.0714 19.2081 73.675 17.1921 73.675 14.2405C73.754 12.9311 73.3928 11.6329 72.6489 10.5525C71.7677 9.39964 70.3673 8.82623 68.641 8.74173C65.3514 8.56668 64.609 8.50632 61.3194 8.48218H60.245C58.9413 8.48218 57.4564 8.05966 57.4685 6.4541C57.4806 4.84854 58.8145 4.68557 60.1545 4.64331C60.8124 4.64331 61.5971 4.64331 62.931 4.64331C63.8787 4.64331 63.601 4.69764 64.5487 4.68557C66.1603 4.68557 67.6632 4.7761 67.6511 6.58689L73.5784 6.62914V5.73582C73.6147 1.26922 70.657 0.707873 67.3916 0.478507C66.0576 0.357788 64.6935 0.357788 63.3596 0.357788C60.7822 0.357788 60.8064 0.394004 58.229 0.526795C53.6598 0.8467 51.517 1.73398 51.4808 6.56275C51.4446 11.6933 54.1366 12.5987 58.724 12.6349L58.73 12.6651Z" fill="#3C65F5"/>
<path fill-rule="evenodd" clip-rule="evenodd" d="M113.361 18.0914C113.232 17.8602 113.042 17.6684 112.812 17.5361C112.582 17.405 112.322 17.3363 112.058 17.3369C111.795 17.3365 111.537 17.4052 111.309 17.5361C111.076 17.6663 110.884 17.8585 110.754 18.0914C110.622 18.321 110.554 18.5813 110.555 18.8459C110.554 19.112 110.624 19.3735 110.758 19.6036C110.892 19.8337 111.084 20.0243 111.315 20.1557C111.542 20.2826 111.798 20.3492 112.058 20.3492C112.318 20.3492 112.573 20.2826 112.8 20.1557C113.031 20.0231 113.223 19.8325 113.358 19.6028C113.492 19.373 113.564 19.1121 113.567 18.8459C113.569 18.5804 113.498 18.3193 113.361 18.0914ZM113.162 19.4918C113.046 19.679 112.883 19.833 112.689 19.9388C112.496 20.0445 112.278 20.0985 112.058 20.0953C111.836 20.0958 111.618 20.0397 111.424 19.9324C111.228 19.8206 111.065 19.659 110.951 19.464C110.838 19.269 110.778 19.0474 110.778 18.8218C110.779 18.5976 110.837 18.3773 110.947 18.182C111.059 17.9863 111.221 17.8237 111.416 17.7106C111.611 17.5975 111.832 17.5379 112.058 17.5379C112.283 17.5379 112.505 17.5975 112.7 17.7106C112.895 17.8237 113.056 17.9863 113.168 18.182C113.278 18.3773 113.336 18.5976 113.337 18.8218C113.337 19.0488 113.277 19.2717 113.162 19.4676V19.4918Z" fill="#3C65F5"/>
<path fill-rule="evenodd" clip-rule="evenodd" d="M112.48 19.2081C112.431 19.1061 112.361 19.0156 112.275 18.9425C112.387 18.8991 112.482 18.8208 112.546 18.7192C112.606 18.6299 112.638 18.5247 112.637 18.4174C112.639 18.3291 112.618 18.2419 112.577 18.1638C112.534 18.0897 112.474 18.0274 112.402 17.9828C112.297 17.9361 112.184 17.9154 112.07 17.9224H111.466V19.7815H111.762V18.9968H111.979C112.009 18.9968 112.058 19.0572 112.13 19.1779L112.19 19.2926L112.444 19.7815H112.776L112.468 19.2081H112.48ZM111.979 18.7735H111.774V18.1699H111.997C112.07 18.1618 112.144 18.1766 112.208 18.2121C112.248 18.2386 112.281 18.2737 112.305 18.3147C112.325 18.3604 112.335 18.4098 112.335 18.4596C112.336 18.5446 112.309 18.6275 112.257 18.695C112.221 18.7321 112.178 18.7606 112.13 18.7783C112.082 18.7961 112.03 18.8027 111.979 18.7976V18.7735Z" fill="#3C65F5"/>
</g>
<defs>
<clipPath id="clip0_21_2595">
<rect width="112.927" height="20.2446" fill="white" transform="translate(0.639893 0.357788)"/>
</clipPath>
</defs>
</svg>
