<svg width="65" height="21" viewBox="0 0 65 21" fill="none" xmlns="http://www.w3.org/2000/svg">
<g clip-path="url(#clip0_21_2605)">
<path fill-rule="evenodd" clip-rule="evenodd" d="M0.0610352 1.43972H7.95011L8.81358 1.4744L9.64236 1.54722L10.4365 1.74488L11.1924 1.9252L11.886 2.21302L12.5344 2.50084L13.1482 2.84762L13.7239 3.24294L14.2267 3.6764L14.733 4.14454L15.1665 4.64737L15.5618 5.18833L15.8843 5.76397L16.2102 6.33962L16.453 6.94647L16.668 7.56025L27.8687 0.357788L31.9398 3.09382L23.222 8.71501L24.6299 9.65129L33.4171 4.06825L37.2004 6.59969L28.5311 12.3284L30.0083 13.2265L38.8337 7.6088V1.43972H45.3183V13.7224H51.0817V19.4858H38.8198V13.5906L27.9069 20.6024L16.7755 13.0739L16.5605 13.7224L16.3593 14.3362L16.0126 14.9465L15.6866 15.5603L15.2982 16.1013L14.8648 16.6561L14.3966 17.1624L13.8591 17.5924L13.3182 18.0085L12.6697 18.3553L12.0212 18.6778L11.2999 18.9691L10.544 19.1841L9.74986 19.3262L8.92107 19.4372L8.02293 19.4719H0.0610352V1.43972ZM6.25786 7.09558H7.95011L8.70608 7.16493L9.31986 7.3834L9.86083 7.7059L10.329 8.13937L10.6515 8.64219L10.9046 9.18315L11.0468 9.79694L11.0849 10.4142L11.0468 11.028L10.9046 11.6383L10.6515 12.1793L10.3047 12.6856L9.8747 13.1156L9.33373 13.4415L8.68527 13.6565L7.96398 13.7293H6.25786V7.09558ZM52.6907 1.43972H59.21V13.7224H64.9387V19.4858H52.6907V1.45359V1.43972Z" fill="#3C65F5"/>
</g>
<defs>
<clipPath id="clip0_21_2605">
<rect width="64.8777" height="20.2446" fill="white" transform="translate(0.0610352 0.357788)"/>
</clipPath>
</defs>
</svg>
