<svg width="127" height="21" viewBox="0 0 127 21" fill="none" xmlns="http://www.w3.org/2000/svg">
<path fill-rule="evenodd" clip-rule="evenodd" d="M0.747192 20.0521L5.12054 0.357788H12.9311L13.2884 11.3626L18.5478 0.357788H26.3727L21.9779 20.0521H16.3112L18.655 9.46178L13.3813 20.0521H9.30809L9.10085 9.46178L6.47113 20.0521H0.747192Z" fill="#3C65F5"/>
<path fill-rule="evenodd" clip-rule="evenodd" d="M27.0515 3.56634H32.3253L33.0398 0.357788H27.7447L27.0515 3.56634Z" fill="#3C65F5"/>
<path fill-rule="evenodd" clip-rule="evenodd" d="M28.6666 20.0736L23.35 20.0521L26.6014 5.46716H31.9109L28.6666 20.0736Z" fill="#3C65F5"/>
<path fill-rule="evenodd" clip-rule="evenodd" d="M48.7897 5.46718H53.5418L53.1273 7.26797C53.7623 6.48979 54.6122 5.9157 55.5713 5.61725C56.3701 5.34808 57.2079 5.21287 58.0509 5.21708L56.8289 9.96916C56.5288 9.96916 52.8486 9.25456 51.7053 14.8713L50.519 20.0736H45.5168L48.7897 5.46718Z" fill="#3C65F5"/>
<path fill-rule="evenodd" clip-rule="evenodd" d="M46.0098 14.6498C46.0098 14.7641 44.3448 20.6238 36.9987 20.4737C27.1873 20.2808 29.717 4.5096 40.8862 5.06698C47.2318 5.38855 46.9174 10.6623 46.8602 10.891H41.3792C41.4507 10.6837 41.6365 8.5042 39.8929 8.54708C36.6414 8.63998 34.3333 16.6935 37.9063 16.7936C39.557 16.8507 40.3288 14.9356 40.4788 14.6926L46.0098 14.6498Z" fill="#3C65F5"/>
<path fill-rule="evenodd" clip-rule="evenodd" d="M93.1162 20.5381C82.4329 20.0879 85.6486 4.35957 96.6106 4.88122C106.915 5.38859 103.992 20.974 93.1162 20.5381ZM96.2533 8.31844C92.6803 7.60385 90.0577 16.129 93.4378 16.8222C97.1966 17.6154 99.7119 9.01161 96.2533 8.31844Z" fill="#3C65F5"/>
<path fill-rule="evenodd" clip-rule="evenodd" d="M113.132 3.30909C111.667 3.30909 111.389 3.86647 111.146 4.9741L111.046 5.46717H114.147L114.919 1.93706H119.764L119.006 5.46717H121.514L120.8 8.82579H118.306L116.934 15.2572C116.821 15.6033 116.802 15.9729 116.877 16.3291C117.084 16.9079 119.17 16.6649 119.17 16.6649L118.363 20.0093C118.363 20.0093 114.118 20.4952 112.689 19.5019C112.053 19.066 111.36 18.1656 111.789 16.229L113.425 8.87581H110.517L108.058 20.1022H102.835L105.279 8.87581H102.592L103.342 5.5172H105.95C106.422 3.6378 106.837 2.35867 108.001 1.38682C109.595 0.0862454 113.718 0.59361 113.718 0.59361L113.132 3.35911V3.30909Z" fill="#3C65F5"/>
<path fill-rule="evenodd" clip-rule="evenodd" d="M66.2687 15.0571H76.1873C76.1873 15.0571 75.337 17.2509 78.4526 17.2723C80.5964 17.2723 81.4611 14.807 78.5527 14.2996C77.2164 14.0566 72.057 13.192 72.6358 9.21166C73.1217 5.94595 76.5232 4.80259 80.2391 4.85976C87.8425 4.95265 86.4133 9.4189 86.5133 9.71903H81.4396C81.4396 9.71903 81.9827 7.84678 79.696 7.84678C77.6094 7.84678 77.102 9.71903 79.5102 10.2264C82.4329 10.8695 85.7987 11.0196 85.9845 14.7927C86.0417 15.8431 85.42 20.7596 77.7595 20.6095C70.7421 20.4594 70.249 17.158 70.442 15.6073C69.6187 17.1848 68.3556 18.4896 66.8056 19.3635C65.2556 20.2374 63.4854 20.6429 61.7096 20.5309C50.9906 20.1879 54.2706 4.36668 65.2183 4.90978C70.2204 5.15274 72.0927 8.92582 71.4924 12.6417C71.3995 13.2992 71.3424 13.3921 71.1494 13.4492L66.2687 15.0642V15.0571ZM64.8395 8.29698C61.3165 7.60382 58.6868 16.079 62.0454 16.7936C65.7613 17.5582 68.2624 8.98299 64.8252 8.28269L64.8395 8.29698Z" fill="#3C65F5"/>
<path fill-rule="evenodd" clip-rule="evenodd" d="M124.437 5.44574C124.937 5.44574 125.417 5.6445 125.771 5.99829C126.125 6.35209 126.324 6.83194 126.324 7.33228C126.324 7.83262 126.125 8.31247 125.771 8.66627C125.417 9.02006 124.937 9.21882 124.437 9.21882C123.937 9.21882 123.457 9.02006 123.103 8.66627C122.749 8.31247 122.551 7.83262 122.551 7.33228C122.551 6.83194 122.749 6.35209 123.103 5.99829C123.457 5.6445 123.937 5.44574 124.437 5.44574ZM124.437 5.7816C124.226 5.76722 124.014 5.79637 123.815 5.86724C123.616 5.93812 123.433 6.04921 123.278 6.19362C123.124 6.33803 123.001 6.51267 122.916 6.7067C122.832 6.90074 122.789 7.11002 122.789 7.32156C122.789 7.5331 122.832 7.74239 122.916 7.93642C123.001 8.13046 123.124 8.3051 123.278 8.4495C123.433 8.59391 123.616 8.705 123.815 8.77588C124.014 8.84676 124.226 8.87591 124.437 8.86152C124.648 8.87591 124.86 8.84676 125.059 8.77588C125.259 8.705 125.441 8.59391 125.596 8.4495C125.75 8.3051 125.874 8.13046 125.958 7.93642C126.042 7.74239 126.086 7.5331 126.086 7.32156C126.086 7.11002 126.042 6.90074 125.958 6.7067C125.874 6.51267 125.75 6.33803 125.596 6.19362C125.441 6.04921 125.259 5.93812 125.059 5.86724C124.86 5.79637 124.648 5.76722 124.437 5.7816ZM124.773 7.54666L125.152 8.26126H124.701L124.401 7.54666H124.137L124.023 8.35416H123.658L123.973 6.34613H124.894C125.032 6.38151 125.153 6.46215 125.238 6.57498C125.324 6.68781 125.369 6.82624 125.366 6.96784C125.368 7.04316 125.355 7.11811 125.327 7.18826C125.3 7.25842 125.258 7.32235 125.206 7.37629C125.153 7.43024 125.09 7.4731 125.021 7.50236C124.951 7.53162 124.877 7.54668 124.802 7.54666H124.773ZM124.68 6.61054H124.301L124.208 7.26797H124.587C124.636 7.27718 124.686 7.27593 124.734 7.26431C124.782 7.25269 124.828 7.23096 124.867 7.20056C124.906 7.17016 124.938 7.13178 124.962 7.08796C124.985 7.04414 124.998 6.99589 125.002 6.9464C125.004 6.90298 124.997 6.85962 124.981 6.81894C124.966 6.77827 124.943 6.74111 124.913 6.70972C124.883 6.67833 124.846 6.65335 124.806 6.63631C124.767 6.61926 124.723 6.61049 124.68 6.61054Z" fill="#3C65F5"/>
</svg>
