<svg width="125" height="21" viewBox="0 0 125 21" fill="none" xmlns="http://www.w3.org/2000/svg">
<g clip-path="url(#clip0_21_2582)">
<path fill-rule="evenodd" clip-rule="evenodd" d="M22.6576 15.4672L22.6845 0.64043L28.4591 0.620239L28.486 20.3735H18.431L6.36368 5.46602L6.33676 20.3197L0.535287 20.3735L0.481445 0.64043L0.562208 0.620239H10.6172L22.6576 15.4672Z" fill="#3C65F5"/>
<path fill-rule="evenodd" clip-rule="evenodd" d="M93.3185 0.640446L93.3589 20.3735H87.194V0.667367L87.2478 0.613525C89.2669 0.613525 91.286 0.613525 93.305 0.613525L93.3185 0.640446Z" fill="#3C65F5"/>
<path fill-rule="evenodd" clip-rule="evenodd" d="M65.6976 10.157L65.7245 10.1839L66.4716 9.56475L76.3516 0.640442H84.549L73.2557 10.2109L73.2826 10.3118L85.996 20.3197L77.0448 20.3735L65.7514 10.258L65.6976 10.3387V20.3735H59.5394V0.640442H65.6976V10.157Z" fill="#3C65F5"/>
<path fill-rule="evenodd" clip-rule="evenodd" d="M49.9151 0.41163C52.4726 0.512584 55.232 0.6943 56.5983 3.21814C56.9113 3.94108 57.0541 4.72629 57.0156 5.51316V16.2412C56.941 16.9568 56.6898 17.6426 56.2845 18.2371C55.8792 18.8315 55.3325 19.3159 54.6936 19.6467C52.0015 20.811 48.7643 20.5216 45.6414 20.6024C41.9533 20.5485 38.1641 20.7841 34.7317 20.1649C33.9265 20.0301 33.1719 19.6826 32.546 19.1584C31.9201 18.6343 31.4455 17.9524 31.1714 17.1834L30.9628 15.945L31.0166 4.57092C31.0637 3.12392 32.3627 1.87882 33.5405 1.2058C35.5259 0.357788 37.9286 0.458742 40.2236 0.357788L49.9151 0.41163ZM37.8007 5.28433C37.2892 5.38528 36.6431 5.59392 36.5623 6.18618C36.5623 9.1273 36.4883 12.1155 36.6162 15.0297C36.7979 15.521 37.3363 15.4739 37.7267 15.5951H48.8652C49.8209 15.521 50.9516 15.7499 51.4698 14.8009V6.46885L51.3891 5.79583C51.2343 5.4122 50.8506 5.35836 50.5141 5.25741H37.7738L37.8007 5.28433Z" fill="#3C65F5"/>
<path fill-rule="evenodd" clip-rule="evenodd" d="M124.109 20.2928V20.3735H117.298C116.686 19.2361 116.067 18.1525 115.495 17.0084L115.367 16.9613H103.252L101.395 20.3264L94.5098 20.3803L105.386 0.640442H113.354L124.123 20.2928H124.109ZM109.303 5.5939L105.541 12.6337H113.126C111.86 10.2849 110.595 7.92257 109.33 5.5939H109.303Z" fill="#3C65F5"/>
</g>
<defs>
<clipPath id="clip0_21_2582">
<rect width="123.628" height="20.2446" fill="white" transform="translate(0.481445 0.357788)"/>
</clipPath>
</defs>
</svg>
