<svg width="117" height="21" viewBox="0 0 117 21" fill="none" xmlns="http://www.w3.org/2000/svg">
<g clip-path="url(#clip0_21_2565)">
<path fill-rule="evenodd" clip-rule="evenodd" d="M115.14 16.7061C114.79 16.7061 114.448 16.8099 114.157 17.0045C113.866 17.1991 113.64 17.4756 113.506 17.799C113.372 18.1225 113.338 18.4784 113.406 18.8215C113.475 19.1647 113.644 19.4798 113.892 19.7268C114.14 19.9738 114.456 20.1417 114.799 20.2093C115.142 20.2768 115.498 20.2409 115.821 20.1061C116.144 19.9713 116.42 19.7437 116.613 19.4521C116.807 19.1605 116.91 18.8181 116.908 18.4681C116.907 18.0002 116.72 17.552 116.388 17.2218C116.057 16.8915 115.608 16.7061 115.14 16.7061ZM115.14 20.0316C114.832 20.0328 114.531 19.9426 114.274 19.7725C114.017 19.6025 113.817 19.36 113.698 19.076C113.579 18.7919 113.547 18.4789 113.605 18.1766C113.664 17.8742 113.812 17.5962 114.028 17.3775C114.245 17.1589 114.522 17.0094 114.824 16.9482C115.126 16.8869 115.439 16.9165 115.724 17.0332C116.009 17.1499 116.253 17.3485 116.425 17.604C116.597 17.8594 116.69 18.1601 116.691 18.4681C116.692 18.6726 116.653 18.8752 116.575 19.0645C116.498 19.2537 116.384 19.4259 116.24 19.5711C116.095 19.7162 115.924 19.8316 115.736 19.9106C115.547 19.9897 115.345 20.0307 115.14 20.0316Z" fill="#3C65F5"/>
<path fill-rule="evenodd" clip-rule="evenodd" d="M116.052 18.009C116.056 17.9243 116.037 17.8402 115.998 17.7651C115.959 17.6899 115.9 17.6264 115.829 17.5809C115.679 17.5048 115.512 17.4705 115.345 17.4816H114.483V19.4608H114.725V18.5487H115.171L115.736 19.4608H116.021L115.401 18.5487C115.754 18.5487 116.021 18.3936 116.021 18.009H116.052ZM115.097 18.3564H114.725V17.6615H115.289C115.537 17.6615 115.804 17.6987 115.804 18.0028C115.804 18.406 115.376 18.3564 115.097 18.3564Z" fill="#3C65F5"/>
<path fill-rule="evenodd" clip-rule="evenodd" d="M104.773 8.42333L108.39 4.55806C108.552 4.38639 108.66 4.17052 108.7 3.93763C108.7 3.65224 108.458 3.54056 107.695 3.54056H106.777V1.09607H116.66V3.53435H115.357C113.862 3.53435 113.583 3.76391 111.492 6.40073L105.765 12.605V16.371C105.765 17.3389 106.256 17.6801 107.627 17.6801H109.786V20.0315H95.9503V17.6553H98.1094C99.5053 17.6553 99.9706 17.3141 99.9706 16.3462V12.5802L93.2762 5.12265C92.1657 3.81975 92.3208 3.53435 89.2186 3.53435V1.09607H101.733V3.53435H100.839C99.9334 3.53435 99.5488 3.70807 99.5488 4.04311C99.5488 4.37814 99.8279 4.55806 100.002 4.78141L103.414 8.50399C103.494 8.61138 103.599 8.69776 103.719 8.75567C103.84 8.81357 103.973 8.84128 104.106 8.8364C104.24 8.83151 104.371 8.79418 104.487 8.72763C104.603 8.66107 104.701 8.56729 104.773 8.45435V8.42333Z" fill="#3C65F5"/>
<path fill-rule="evenodd" clip-rule="evenodd" d="M20.8164 1.0961H23.8379V7.92081H21.046C20.7978 6.55587 19.9478 6.02851 19.1847 5.31501C17.7825 4.03073 14.7548 2.95739 12.2049 2.95739C8.89797 2.93877 6.11845 3.96248 6.11845 5.46392C6.11845 9.62699 24.9485 6.3139 24.9485 14.1933C24.9485 18.3068 20.9157 20.6024 13.6691 20.6024C10.7178 20.5458 7.81052 19.876 5.13197 18.6356C4.43088 18.2261 4.13308 19.0141 4.00279 20.0068H0.900645V12.9773H3.70498C4.31921 14.7579 5.1754 15.1302 5.95714 15.8685C7.30967 17.1094 10.5421 18.0214 13.5078 17.9966C17.9748 17.9531 19.5135 16.9729 19.5135 15.5583C19.5135 14.1437 17.9935 13.8025 13.0983 13.0331L8.9414 12.3569C4.24475 11.6124 0.832397 10.5638 0.832397 6.82266C0.832397 2.93877 5.1754 0.500488 12.0001 0.500488C14.8603 0.500488 17.2738 0.885154 19.5817 2.21908C20.2022 2.63476 20.8226 2.6844 20.8226 1.12092L20.8164 1.0961Z" fill="#3C65F5"/>
<path fill-rule="evenodd" clip-rule="evenodd" d="M79.7199 12.4871L79.7819 4.92412C79.7819 3.93143 79.267 3.59019 77.7903 3.59019H76.0593V1.23877H87.072V3.59019H85.645C84.1683 3.59019 83.6534 3.93143 83.6534 4.92412V20.1494L79.3104 20.1122L65.357 6.88467V16.4889C65.357 17.4568 65.8719 17.8228 67.3485 17.8228H69.2657V20.1494H57.825V17.8228H59.7235C61.1939 17.8228 61.715 17.4568 61.715 16.4889V4.92412C61.715 3.93143 61.1939 3.59019 59.7235 3.59019H57.825V1.23877H67.7518L79.7447 12.4871H79.7199Z" fill="#3C65F5"/>
<path fill-rule="evenodd" clip-rule="evenodd" d="M42.7919 0.357788C34.0067 0.357788 28.5221 4.24167 28.5221 10.477C28.5221 16.6006 33.9508 20.4597 42.5438 20.4597C51.6703 20.4597 56.9812 16.6564 56.9812 10.1668C56.9625 4.32853 51.236 0.357788 42.7919 0.357788ZM42.5934 17.9904C37.7293 17.9904 34.9559 15.186 34.9559 10.3343C34.9559 5.60041 37.8533 2.79607 42.8354 2.79607C47.6189 2.79607 50.417 5.66245 50.417 10.5328C50.417 15.2977 47.5755 17.978 42.5934 17.978V17.9904Z" fill="#3C65F5"/>
</g>
<defs>
<clipPath id="clip0_21_2565">
<rect width="116.076" height="20.2446" fill="white" transform="translate(0.832397 0.357788)"/>
</clipPath>
</defs>
</svg>
