<svg width="42" height="42" viewBox="0 0 42 42" fill="none" xmlns="http://www.w3.org/2000/svg">
<path d="M38.0625 26.25C37.8885 26.25 37.7215 26.3191 37.5985 26.4422C37.4754 26.5653 37.4062 26.7322 37.4062 26.9062V31.5C37.4045 33.0659 36.7817 34.5672 35.6744 35.6744C34.5672 36.7817 33.0659 37.4045 31.5 37.4062H22.9688C22.7947 37.4062 22.6278 37.4754 22.5047 37.5985C22.3816 37.7215 22.3125 37.8885 22.3125 38.0625C22.3125 38.2365 22.3816 38.4035 22.5047 38.5265C22.6278 38.6496 22.7947 38.7188 22.9688 38.7188H31.5C33.4139 38.7166 35.2487 37.9553 36.602 36.602C37.9553 35.2487 38.7166 33.4139 38.7188 31.5V26.9062C38.7188 26.7322 38.6496 26.5653 38.5265 26.4422C38.4035 26.3191 38.2365 26.25 38.0625 26.25Z" fill="#4294FF"/>
<path d="M35.4375 22.3125C35.2635 22.3125 35.0965 22.2434 34.9735 22.1203C34.8504 21.9972 34.7812 21.8303 34.7812 21.6562V16.4062C34.7812 12.7512 33.3293 9.24592 30.7448 6.66143C28.1603 4.07695 24.655 2.625 21 2.625C17.345 2.625 13.8397 4.07695 11.2552 6.66143C8.6707 9.24592 7.21875 12.7512 7.21875 16.4062V21.6562C7.21875 21.8303 7.14961 21.9972 7.02654 22.1203C6.90347 22.2434 6.73655 22.3125 6.5625 22.3125C6.38845 22.3125 6.22153 22.2434 6.09846 22.1203C5.97539 21.9972 5.90625 21.8303 5.90625 21.6562V16.4062C5.90625 12.4031 7.49648 8.56398 10.3271 5.73336C13.1577 2.90273 16.9969 1.3125 21 1.3125C25.0031 1.3125 28.8423 2.90273 31.6729 5.73336C34.5035 8.56398 36.0938 12.4031 36.0938 16.4062V21.6562C36.0938 21.8303 36.0246 21.9972 35.9015 22.1203C35.7785 22.2434 35.6115 22.3125 35.4375 22.3125Z" fill="#4294FF"/>
<path d="M36.75 21H32.8125C32.6385 21 32.4715 21.0691 32.3485 21.1922C32.2254 21.3153 32.1562 21.4822 32.1562 21.6562V28.2188C32.1562 28.3928 32.2254 28.5597 32.3485 28.6828C32.4715 28.8059 32.6385 28.875 32.8125 28.875H36.75C37.272 28.8744 37.7724 28.6668 38.1415 28.2977C38.5106 27.9286 38.7182 27.4282 38.7188 26.9062V22.9688C38.7182 22.4468 38.5106 21.9464 38.1415 21.5773C37.7724 21.2082 37.272 21.0006 36.75 21V21Z" fill="#E6ECFF"/>
<path d="M9.1875 21H5.25C4.72803 21.0006 4.2276 21.2082 3.85852 21.5773C3.48943 21.9464 3.28182 22.4468 3.28125 22.9688V26.9062C3.28182 27.4282 3.48943 27.9286 3.85852 28.2977C4.2276 28.6668 4.72803 28.8744 5.25 28.875H9.1875C9.36155 28.875 9.52847 28.8059 9.65154 28.6828C9.77461 28.5597 9.84375 28.3928 9.84375 28.2188V21.6562C9.84375 21.4822 9.77461 21.3153 9.65154 21.1922C9.52847 21.0691 9.36155 21 9.1875 21V21Z" fill="#E6ECFF"/>
<path d="M28.1321 3.07052C27.139 2.5178 26.0784 2.09618 24.9769 1.81623C21.5143 0.874823 17.8297 1.19728 14.5833 2.72582C11.3369 4.25437 8.74099 6.88907 7.26074 10.1578L9.57652 12.4731C9.65323 12.5498 9.74776 12.6063 9.85165 12.6375C9.95553 12.6687 10.0655 12.6737 10.1718 12.652C10.2781 12.6303 10.3773 12.5826 10.4607 12.5131C10.544 12.4437 10.6088 12.3547 10.6493 12.254C11.4776 10.1862 12.9062 8.41386 14.7511 7.16548C16.596 5.91711 18.7724 5.24991 21 5.24991C23.2275 5.24991 25.404 5.91711 27.2489 7.16548C29.0937 8.41386 30.5224 10.1862 31.3507 12.254C31.3911 12.3547 31.4559 12.4438 31.5392 12.5133C31.6225 12.5828 31.7218 12.6306 31.8281 12.6523C31.9344 12.674 32.0445 12.669 32.1484 12.6378C32.2523 12.6065 32.3468 12.5499 32.4235 12.4731L34.737 10.1592C33.3627 7.14237 31.0444 4.65435 28.1321 3.07052V3.07052Z" fill="#4294FF"/>
<path d="M21 40.6875C22.4497 40.6875 23.625 39.5122 23.625 38.0625C23.625 36.6128 22.4497 35.4375 21 35.4375C19.5503 35.4375 18.375 36.6128 18.375 38.0625C18.375 39.5122 19.5503 40.6875 21 40.6875Z" fill="#4294FF"/>
<path d="M13.7812 17.0625H10.5C9.41269 17.0625 8.53125 17.9439 8.53125 19.0312V30.8438C8.53125 31.9311 9.41269 32.8125 10.5 32.8125H13.7812C14.8686 32.8125 15.75 31.9311 15.75 30.8438V19.0312C15.75 17.9439 14.8686 17.0625 13.7812 17.0625Z" fill="#E6ECFF"/>
<path d="M31.5 17.0625H28.2188C27.1314 17.0625 26.25 17.9439 26.25 19.0312V30.8438C26.25 31.9311 27.1314 32.8125 28.2188 32.8125H31.5C32.5873 32.8125 33.4688 31.9311 33.4688 30.8438V19.0312C33.4688 17.9439 32.5873 17.0625 31.5 17.0625Z" fill="#E6ECFF"/>
</svg>
