<svg width="42" height="42" viewBox="0 0 42 42" fill="none" xmlns="http://www.w3.org/2000/svg">
<path d="M25.5872 35.9888C25.602 36.0827 25.5962 36.1787 25.5704 36.2702C25.5445 36.3617 25.4992 36.4465 25.4375 36.5189C25.3758 36.5912 25.2991 36.6493 25.2128 36.6892C25.1265 36.7291 25.0326 36.7498 24.9375 36.75H19.1297C18.4931 36.3431 17.8828 35.9034 17.2922 35.4375C17.0559 35.2538 16.8262 35.0634 16.5966 34.8731L17.0691 32.0513C17.094 31.8971 17.1731 31.7568 17.2922 31.6557C17.4113 31.5547 17.5625 31.4995 17.7187 31.5H24.2812C24.4374 31.4995 24.5887 31.5547 24.7078 31.6557C24.8269 31.7568 24.906 31.8971 24.9309 32.0513L25.4953 35.4375L25.5872 35.9888Z" fill="#4294FF"/>
<path d="M11.8125 19.6875H7.875C7.51256 19.6875 7.21875 19.9813 7.21875 20.3438V32.1562C7.21875 32.5187 7.51256 32.8125 7.875 32.8125H11.8125C12.1749 32.8125 12.4688 32.5187 12.4688 32.1562V20.3438C12.4688 19.9813 12.1749 19.6875 11.8125 19.6875Z" fill="#4294FF"/>
<path d="M22.9688 19.6875H19.0312C18.6688 19.6875 18.375 19.9813 18.375 20.3438V32.1562C18.375 32.5187 18.6688 32.8125 19.0312 32.8125H22.9688C23.3312 32.8125 23.625 32.5187 23.625 32.1562V20.3438C23.625 19.9813 23.3312 19.6875 22.9688 19.6875Z" fill="#4294FF"/>
<path d="M34.125 19.6875H30.1875C29.8251 19.6875 29.5312 19.9813 29.5312 20.3438V32.1562C29.5312 32.5187 29.8251 32.8125 30.1875 32.8125H34.125C34.4874 32.8125 34.7812 32.5187 34.7812 32.1562V20.3438C34.7812 19.9813 34.4874 19.6875 34.125 19.6875Z" fill="#4294FF"/>
<path d="M24.9375 15.75H17.0625C16.9672 15.75 16.873 15.7708 16.7865 15.8109C16.7 15.851 16.6233 15.9094 16.5617 15.9821C16.5001 16.0549 16.4551 16.1402 16.4298 16.232C16.4045 16.3239 16.3995 16.4203 16.4152 16.5143L17.0715 20.4518C17.097 20.605 17.1761 20.7441 17.2946 20.8445C17.4131 20.9449 17.5634 21 17.7187 21H24.2812C24.4366 21.0001 24.5869 20.945 24.7054 20.8446C24.824 20.7442 24.903 20.605 24.9285 20.4518L25.5847 16.5143C25.6004 16.4203 25.5955 16.3239 25.5702 16.232C25.5449 16.1402 25.4998 16.0549 25.4382 15.9821C25.3766 15.9094 25.2999 15.851 25.2135 15.8109C25.127 15.7708 25.0328 15.75 24.9375 15.75Z" fill="#4294FF"/>
<path d="M13.7812 15.75H5.90624C5.81092 15.75 5.71675 15.7708 5.63028 15.8109C5.5438 15.851 5.46709 15.9094 5.40549 15.9821C5.34389 16.0549 5.29888 16.1402 5.27357 16.232C5.24827 16.3239 5.24329 16.4203 5.25898 16.5143L5.91523 20.4518C5.9408 20.605 6.01987 20.7441 6.13838 20.8445C6.2569 20.9449 6.40718 21 6.56249 21H13.125C13.2803 21 13.4306 20.9449 13.5491 20.8445C13.6676 20.7441 13.7467 20.605 13.7722 20.4518L14.4285 16.5143C14.4442 16.4203 14.4392 16.3239 14.4139 16.232C14.3886 16.1402 14.3436 16.0549 14.282 15.9821C14.2204 15.9094 14.1437 15.851 14.0572 15.8109C13.9707 15.7708 13.8766 15.75 13.7812 15.75Z" fill="#4294FF"/>
<path d="M28.875 21H35.4375C35.5928 21.0001 35.7432 20.945 35.8617 20.8446C35.9802 20.7442 36.0593 20.605 36.0848 20.4518L36.741 16.5143C36.7567 16.4203 36.7517 16.3239 36.7264 16.232C36.7011 16.1402 36.6561 16.0549 36.5945 15.9821C36.5329 15.9094 36.4562 15.851 36.3697 15.8109C36.2832 15.7708 36.1891 15.75 36.0937 15.75H28.2187C28.1234 15.75 28.0293 15.7708 27.9428 15.8109C27.8563 15.851 27.7796 15.9094 27.718 15.9821C27.6564 16.0549 27.6114 16.1402 27.5861 16.232C27.5608 16.3239 27.5558 16.4203 27.5715 16.5143L28.2277 20.4518C28.2532 20.605 28.3323 20.7442 28.4508 20.8446C28.5693 20.945 28.7197 21.0001 28.875 21V21Z" fill="#4294FF"/>
<path d="M24.2812 31.5H17.7187C17.5634 31.5 17.4131 31.5551 17.2946 31.6555C17.1761 31.7559 17.097 31.895 17.0715 32.0482L16.4152 35.9857C16.3995 36.0797 16.4045 36.1761 16.4298 36.268C16.4551 36.3598 16.5001 36.4451 16.5617 36.5179C16.6233 36.5906 16.7 36.649 16.7865 36.6891C16.873 36.7292 16.9672 36.75 17.0625 36.75H24.9375C25.0328 36.75 25.127 36.7292 25.2135 36.6891C25.2999 36.649 25.3766 36.5906 25.4382 36.5179C25.4998 36.4451 25.5449 36.3598 25.5702 36.268C25.5955 36.1761 25.6004 36.0797 25.5847 35.9857L24.9285 32.0482C24.903 31.895 24.824 31.7558 24.7054 31.6554C24.5869 31.555 24.4366 31.4999 24.2812 31.5Z" fill="#4294FF"/>
<path d="M35.4375 31.5H28.875C28.7197 31.4999 28.5693 31.555 28.4508 31.6554C28.3323 31.7558 28.2532 31.895 28.2277 32.0482L27.5715 35.9857C27.5558 36.0797 27.5608 36.1761 27.5861 36.268C27.6114 36.3598 27.6564 36.4451 27.718 36.5179C27.7796 36.5906 27.8563 36.649 27.9428 36.6891C28.0293 36.7292 28.1234 36.75 28.2187 36.75H36.0937C36.1891 36.75 36.2832 36.7292 36.3697 36.6891C36.4562 36.649 36.5329 36.5906 36.5945 36.5179C36.6561 36.4451 36.7011 36.3598 36.7264 36.268C36.7517 36.1761 36.7567 36.0797 36.741 35.9857L36.0848 32.0482C36.0593 31.895 35.9802 31.7558 35.8617 31.6554C35.7432 31.555 35.5928 31.4999 35.4375 31.5Z" fill="#4294FF"/>
<path d="M13.125 31.5H6.56249C6.40718 31.5 6.2569 31.5551 6.13838 31.6555C6.01987 31.7559 5.9408 31.895 5.91523 32.0482L5.25898 35.9857C5.24329 36.0797 5.24827 36.1761 5.27357 36.268C5.29888 36.3598 5.34389 36.4451 5.40549 36.5179C5.46709 36.5906 5.5438 36.649 5.63028 36.6891C5.71675 36.7292 5.81092 36.75 5.90624 36.75H13.7812C13.8766 36.75 13.9707 36.7292 14.0572 36.6891C14.1437 36.649 14.2204 36.5906 14.282 36.5179C14.3436 36.4451 14.3886 36.3598 14.4139 36.268C14.4392 36.1761 14.4442 36.0797 14.4285 35.9857L13.7722 32.0482C13.7467 31.895 13.6676 31.7559 13.5491 31.6555C13.4306 31.5551 13.2803 31.5 13.125 31.5Z" fill="#4294FF"/>
<path d="M8.1375 19.6875C8.00987 18.8174 7.92881 17.9412 7.89469 17.0625C7.88156 16.7344 7.875 16.4062 7.875 16.0781C7.875 15.9666 7.875 15.8616 7.88156 15.75H5.25V17.0625H5.34844L5.91281 20.4487C5.93771 20.603 6.01683 20.7432 6.13594 20.8443C6.25504 20.9453 6.4063 21.0005 6.5625 21H8.36719C8.28188 20.5669 8.20312 20.1272 8.1375 19.6875V19.6875Z" fill="#4294FF"/>
<path d="M38.0625 35.4375H3.9375C3.57506 35.4375 3.28125 35.7313 3.28125 36.0938V40.0312C3.28125 40.3937 3.57506 40.6875 3.9375 40.6875H38.0625C38.4249 40.6875 38.7188 40.3937 38.7188 40.0312V36.0938C38.7188 35.7313 38.4249 35.4375 38.0625 35.4375Z" fill="#E6ECFF"/>
<path d="M12.4688 30.3975V31.5H7.21875V21H8.36719C9.0552 24.3871 10.4531 27.5899 12.4688 30.3975V30.3975Z" fill="#578BFF"/>
<path d="M17.2922 35.4375H16.5047L16.5965 34.8731C16.8262 35.0634 17.0559 35.2537 17.2922 35.4375Z" fill="#4294FF"/>
<path d="M32.4844 40.6875H3.9375C3.76361 40.687 3.59698 40.6177 3.47402 40.4947C3.35105 40.3718 3.28175 40.2051 3.28125 40.0312V36.0937C3.28175 35.9199 3.35105 35.7532 3.47402 35.6303C3.59698 35.5073 3.76361 35.438 3.9375 35.4375H17.2922C17.8828 35.9034 18.4931 36.3431 19.1297 36.75C23.1055 39.3292 27.7453 40.6972 32.4844 40.6875V40.6875Z" fill="#E6ECFF"/>
<path d="M38.0625 12.4688H3.9375C3.57506 12.4688 3.28125 12.7626 3.28125 13.125V16.4062C3.28125 16.7687 3.57506 17.0625 3.9375 17.0625H38.0625C38.4249 17.0625 38.7188 16.7687 38.7188 16.4062V13.125C38.7188 12.7626 38.4249 12.4688 38.0625 12.4688Z" fill="#E6ECFF"/>
<path d="M7.88156 15.75C7.875 15.8616 7.875 15.9666 7.875 16.0781C7.875 16.4062 7.88156 16.7344 7.89469 17.0625H3.9375C3.76361 17.062 3.59698 16.9927 3.47402 16.8697C3.35105 16.7468 3.28175 16.5801 3.28125 16.4062V12.4688H8.1375C8.07187 12.9019 8.01937 13.3416 7.98 13.7812C7.92094 14.4309 7.88813 15.0872 7.88156 15.75V15.75Z" fill="#BECCED"/>
<path d="M40.3632 12.5588L21.332 1.40252C21.2312 1.34367 21.1167 1.31265 21 1.31265C20.8833 1.31265 20.7687 1.34367 20.668 1.40252L1.63674 12.5588C1.51239 12.6316 1.41549 12.7434 1.36099 12.8768C1.30649 13.0102 1.29742 13.1579 1.3352 13.297C1.37297 13.4361 1.45548 13.5588 1.56998 13.6464C1.68448 13.7339 1.82462 13.7813 1.96874 13.7812H40.0312C40.1754 13.7813 40.3155 13.7339 40.43 13.6464C40.5445 13.5588 40.627 13.4361 40.6648 13.297C40.7026 13.1579 40.6935 13.0102 40.639 12.8768C40.5845 12.7434 40.4876 12.6316 40.3632 12.5588V12.5588Z" fill="#E6ECFF"/>
<path d="M22.3125 7.21875C22.4865 7.21875 22.6535 7.14961 22.7765 7.02654C22.8996 6.90347 22.9688 6.73655 22.9688 6.5625V6.46669C22.9674 6.06933 22.8394 5.68275 22.6034 5.36307C22.3673 5.04339 22.0356 4.80724 21.6562 4.68891V4.59375C21.6562 4.4197 21.5871 4.25278 21.464 4.12971C21.341 4.00664 21.174 3.9375 21 3.9375C20.826 3.9375 20.659 4.00664 20.536 4.12971C20.4129 4.25278 20.3438 4.4197 20.3438 4.59375V4.68891C19.9878 4.79951 19.6732 5.01415 19.4403 5.30518C19.2075 5.59621 19.0671 5.9503 19.0373 6.32182C19.0074 6.69334 19.0895 7.06528 19.273 7.38973C19.4564 7.71417 19.7328 7.97626 20.0666 8.14222L21.3462 8.78148C21.4592 8.83797 21.5497 8.93093 21.6032 9.0453C21.6568 9.15967 21.6701 9.28875 21.6411 9.41166C21.6122 9.53456 21.5426 9.64408 21.4436 9.7225C21.3446 9.80092 21.2221 9.84364 21.0958 9.84375H20.9042C20.7556 9.84354 20.6132 9.78443 20.5081 9.67937C20.4031 9.57431 20.344 9.43189 20.3438 9.28331V9.1875C20.3438 9.01345 20.2746 8.84653 20.1515 8.72346C20.0285 8.60039 19.8615 8.53125 19.6875 8.53125C19.5135 8.53125 19.3465 8.60039 19.2235 8.72346C19.1004 8.84653 19.0312 9.01345 19.0312 9.1875V9.28331C19.0326 9.68067 19.1606 10.0673 19.3966 10.3869C19.6327 10.7066 19.9644 10.9428 20.3438 11.0611V11.1562C20.3438 11.3303 20.4129 11.4972 20.536 11.6203C20.659 11.7434 20.826 11.8125 21 11.8125C21.174 11.8125 21.341 11.7434 21.464 11.6203C21.5871 11.4972 21.6562 11.3303 21.6562 11.1562V11.0611C22.0122 10.9505 22.3269 10.7359 22.5598 10.4448C22.7926 10.1538 22.933 9.79964 22.9628 9.42809C22.9926 9.05654 22.9104 8.68458 22.7269 8.36015C22.5434 8.03571 22.2669 7.77367 21.9331 7.60778L20.654 6.96852C20.5409 6.91212 20.4503 6.81919 20.3967 6.70481C20.343 6.59043 20.3296 6.4613 20.3586 6.33834C20.3876 6.21538 20.4572 6.10581 20.5562 6.02739C20.6553 5.94896 20.7779 5.90628 20.9042 5.90625H21.0958C21.2444 5.90646 21.3868 5.96557 21.4919 6.07063C21.5969 6.17569 21.656 6.31811 21.6562 6.46669V6.5625C21.6562 6.73655 21.7254 6.90347 21.8485 7.02654C21.9715 7.14961 22.1385 7.21875 22.3125 7.21875Z" fill="#4294FF"/>
<path d="M9.18749 8.13092C8.70533 9.54164 8.35385 10.9937 8.13748 12.4687C8.07186 12.9019 8.01936 13.3415 7.97999 13.7812H1.96874C1.82546 13.7802 1.68643 13.7324 1.57282 13.6451C1.4592 13.5578 1.37721 13.4358 1.33932 13.2976C1.30143 13.1594 1.30972 13.0127 1.36292 12.8796C1.41612 12.7466 1.51133 12.6346 1.63405 12.5606L9.18749 8.13092Z" fill="#E6ECFF"/>
</svg>
