<svg width="42" height="42" viewBox="0 0 42 42" fill="none" xmlns="http://www.w3.org/2000/svg">
<path d="M34.7812 30.3056V38.0625C34.7807 38.2364 34.7114 38.403 34.5885 38.526C34.4655 38.6489 34.2989 38.7182 34.125 38.7187H7.875C7.70111 38.7182 7.53448 38.6489 7.41152 38.526C7.28855 38.403 7.21925 38.2364 7.21875 38.0625V30.3056C7.21488 28.9641 7.58654 27.6483 8.29168 26.5071C8.99682 25.3659 10.0073 24.4448 11.2087 23.8481L14.1422 22.3847H27.8578L30.7912 23.8481C31.9927 24.4448 33.0032 25.3659 33.7083 26.5071C34.4135 27.6483 34.7851 28.9641 34.7812 30.3056V30.3056Z" fill="#E6ECFF"/>
<path d="M23.9124 17.7188H18.0882C17.7258 17.7188 17.432 18.0126 17.432 18.375V23.625C17.432 23.9874 17.7258 24.2812 18.0882 24.2812H23.9124C24.2749 24.2812 24.5687 23.9874 24.5687 23.625V18.375C24.5687 18.0126 24.2749 17.7188 23.9124 17.7188Z" fill="#C8D5F8"/>
<path d="M27.9563 9.78606C27.838 8.02177 27.0537 6.36835 25.7622 5.16056C24.4707 3.95277 22.7685 3.28085 21.0003 3.28085C19.232 3.28085 17.5298 3.95277 16.2383 5.16056C14.9469 6.36835 14.1626 8.02177 14.0443 9.78606L13.8482 12.7064C13.8399 12.8289 13.8662 12.9513 13.9241 13.0596C13.9819 13.168 14.069 13.2579 14.1754 13.3192C14.2819 13.3805 14.4033 13.4107 14.5261 13.4063C14.6488 13.402 14.7679 13.3633 14.8697 13.2947C15.0328 13.1845 15.225 13.1254 15.4219 13.125H15.75C17.3528 13.125 18.2397 11.8465 18.6711 10.9249C20.9083 12.4261 23.5567 13.1949 26.25 13.125H26.5781C26.7751 13.1254 26.9674 13.1845 27.1306 13.2948C27.2324 13.3635 27.3515 13.4021 27.4742 13.4065C27.5969 13.4108 27.7184 13.3806 27.8248 13.3193C27.9313 13.258 28.0183 13.1681 28.0762 13.0598C28.134 12.9514 28.1603 12.829 28.1521 12.7065L27.9563 9.78606Z" fill="#578BFF"/>
<path d="M16.4062 11.8125H15.4219C14.8127 11.8125 14.2285 12.0545 13.7977 12.4852C13.367 12.916 13.125 13.5002 13.125 14.1094C13.125 14.7185 13.367 15.3028 13.7977 15.7335C14.2285 16.1643 14.8127 16.4062 15.4219 16.4062H16.4062C16.5803 16.4062 16.7472 16.3371 16.8703 16.214C16.9934 16.091 17.0625 15.924 17.0625 15.75V12.4688C17.0625 12.2947 16.9934 12.1278 16.8703 12.0047C16.7472 11.8816 16.5803 11.8125 16.4062 11.8125Z" fill="#C8D5F8"/>
<path d="M26.5781 11.8125H25.5938C25.4197 11.8125 25.2528 11.8816 25.1297 12.0047C25.0066 12.1278 24.9375 12.2947 24.9375 12.4688V15.75C24.9375 15.924 25.0066 16.091 25.1297 16.214C25.2528 16.3371 25.4197 16.4062 25.5938 16.4062H26.5781C27.1873 16.4062 27.7715 16.1643 28.2023 15.7335C28.633 15.3028 28.875 14.7185 28.875 14.1094C28.875 13.5002 28.633 12.916 28.2023 12.4852C27.7715 12.0545 27.1873 11.8125 26.5781 11.8125V11.8125Z" fill="#C8D5F8"/>
<path d="M18.0263 9.68546C18.0402 9.69858 17.0793 11.8436 15.75 11.8117V14.9085C15.7321 16.2623 16.2258 17.5729 17.1325 18.5784C18.0392 19.5839 19.292 20.2101 20.6404 20.3319C21.3583 20.3803 22.0785 20.2808 22.7563 20.0396C23.4342 19.7984 24.0554 19.4205 24.5813 18.9295C25.1072 18.4384 25.5266 17.8446 25.8137 17.1848C26.1007 16.525 26.2492 15.8133 26.25 15.0937V11.8152C23.3731 11.8099 20.5442 11.0773 18.0263 9.68546V9.68546Z" fill="#E6ECFF"/>
<path d="M24.2812 38.7188L22.3125 28.2188L23.4084 25.4822L21 24.2812L18.5916 25.4822L19.6875 28.2188L17.7188 38.7188H24.2812Z" fill="#4294FF"/>
<path d="M23.4084 25.4822L22.3125 28.2188H19.6875L18.5916 25.4822L21 24.2812L23.4084 25.4822Z" fill="#4294FF"/>
<path d="M13.125 31.5V38.7188H11.8125V31.5C11.8125 31.326 11.8816 31.159 12.0047 31.036C12.1278 30.9129 12.2947 30.8438 12.4688 30.8438C12.6428 30.8438 12.8097 30.9129 12.9328 31.036C13.0559 31.159 13.125 31.326 13.125 31.5Z" fill="#E6ECFF"/>
<path d="M30.1875 31.5V38.7188H28.875V31.5C28.875 31.326 28.9441 31.159 29.0672 31.036C29.1903 30.9129 29.3572 30.8438 29.5312 30.8438C29.7053 30.8438 29.8722 30.9129 29.9953 31.036C30.1184 31.159 30.1875 31.326 30.1875 31.5Z" fill="#E6ECFF"/>
<path d="M21 24.2813L23.9643 26.567L27.8558 22.3814L24.778 20.5688L21 24.2813Z" fill="#E6ECFF"/>
<path d="M21 24.2813L18.0357 26.567L14.1442 22.3814L17.222 20.5688L21 24.2813Z" fill="#E6ECFF"/>
</svg>
