<svg width="42" height="42" viewBox="0 0 42 42" fill="none" xmlns="http://www.w3.org/2000/svg">
<path d="M21 6.5625C18.2885 6.56092 15.6505 7.44376 13.4862 9.07708C11.3219 10.7104 9.74936 13.0051 9.00717 15.613C8.26498 18.2209 8.39365 20.9997 9.37365 23.5279C10.3536 26.0561 12.1315 28.1956 14.4375 29.6219V34.7813C14.4375 34.9553 14.5066 35.1222 14.6297 35.2453C14.7528 35.3684 14.9197 35.4375 15.0937 35.4375H26.9062C27.0803 35.4375 27.2472 35.3684 27.3703 35.2453C27.4934 35.1222 27.5625 34.9553 27.5625 34.7813V29.6219C29.8685 28.1956 31.6463 26.0561 32.6263 23.5279C33.6063 20.9997 33.735 18.2209 32.9928 15.613C32.2506 13.0051 30.6781 10.7104 28.5138 9.07708C26.3495 7.44376 23.7115 6.56092 21 6.5625V6.5625Z" fill="#E6ECFF"/>
<path d="M21 6.5625C19.2861 6.56169 17.5905 6.91512 16.0196 7.60061C14.4488 8.2861 13.0365 9.28885 11.8716 10.5459C11.8382 11.9993 11.9027 13.4532 12.0647 14.8979L12.0619 14.9034C12.065 14.9302 12.0701 14.9584 12.0733 14.9853C12.6544 21.0308 15.4004 26.6628 19.8056 30.8438H27.5625V29.6231C29.8685 28.1967 31.6464 26.0571 32.6264 23.5288C33.6064 21.0006 33.7351 18.2217 32.9929 15.6137C32.2508 13.0057 30.6782 10.7109 28.5139 9.07747C26.3496 7.44403 23.7115 6.56106 21 6.5625V6.5625Z" fill="#E6ECFF"/>
<path d="M11.8125 19.6875C11.6385 19.6875 11.4715 19.6184 11.3485 19.4953C11.2254 19.3722 11.1562 19.2053 11.1562 19.0312C11.1592 16.4214 12.1973 13.9193 14.0427 12.0739C15.8881 10.2285 18.3902 9.19045 21 9.1875C21.174 9.1875 21.341 9.25664 21.464 9.37971C21.5871 9.50278 21.6562 9.6697 21.6562 9.84375C21.6562 10.0178 21.5871 10.1847 21.464 10.3078C21.341 10.4309 21.174 10.5 21 10.5C18.7381 10.5025 16.5696 11.4021 14.9703 13.0015C13.3709 14.6009 12.4713 16.7694 12.4688 19.0312C12.4688 19.2053 12.3996 19.3722 12.2765 19.4953C12.1535 19.6184 11.9865 19.6875 11.8125 19.6875Z" fill="#4294FF"/>
<path d="M21 5.25C20.826 5.25 20.659 5.18086 20.536 5.05779C20.4129 4.93472 20.3438 4.7678 20.3438 4.59375V1.96875C20.3438 1.7947 20.4129 1.62778 20.536 1.50471C20.659 1.38164 20.826 1.3125 21 1.3125C21.174 1.3125 21.341 1.38164 21.464 1.50471C21.5871 1.62778 21.6562 1.7947 21.6562 1.96875V4.59375C21.6562 4.7678 21.5871 4.93472 21.464 5.05779C21.341 5.18086 21.174 5.25 21 5.25Z" fill="#4294FF"/>
<path d="M31.036 8.99521C30.9751 8.9343 30.9267 8.86197 30.8937 8.78236C30.8607 8.70275 30.8437 8.61742 30.8437 8.53124C30.8437 8.44506 30.8607 8.35973 30.8937 8.28012C30.9267 8.20051 30.9751 8.12818 31.036 8.06727L33.0048 6.09852C33.1285 5.97898 33.2943 5.91284 33.4664 5.91433C33.6384 5.91583 33.803 5.98484 33.9247 6.10652C34.0464 6.22819 34.1154 6.39279 34.1169 6.56485C34.1184 6.73692 34.0523 6.90269 33.9327 7.02646L31.964 8.99521C31.9031 9.05617 31.8307 9.10454 31.7511 9.13753C31.6715 9.17053 31.5862 9.18752 31.5 9.18752C31.4138 9.18752 31.3285 9.17053 31.2489 9.13753C31.1693 9.10454 31.0969 9.05617 31.036 8.99521V8.99521Z" fill="#4294FF"/>
<path d="M38.0625 19.6875H35.4375C35.2635 19.6875 35.0965 19.6184 34.9735 19.4953C34.8504 19.3722 34.7812 19.2053 34.7812 19.0312C34.7812 18.8572 34.8504 18.6903 34.9735 18.5672C35.0965 18.4441 35.2635 18.375 35.4375 18.375H38.0625C38.2365 18.375 38.4035 18.4441 38.5265 18.5672C38.6496 18.6903 38.7188 18.8572 38.7188 19.0312C38.7188 19.2053 38.6496 19.3722 38.5265 19.4953C38.4035 19.6184 38.2365 19.6875 38.0625 19.6875Z" fill="#4294FF"/>
<path d="M10.036 8.99521L8.06727 7.02646C7.94773 6.90269 7.88159 6.73692 7.88308 6.56485C7.88458 6.39279 7.95359 6.22819 8.07527 6.10652C8.19694 5.98484 8.36154 5.91583 8.5336 5.91433C8.70567 5.91284 8.87144 5.97898 8.99521 6.09852L10.964 8.06727C11.0835 8.19104 11.1496 8.35681 11.1482 8.52888C11.1467 8.70095 11.0776 8.86554 10.956 8.98722C10.8343 9.10889 10.6697 9.17791 10.4976 9.1794C10.3256 9.1809 10.1598 9.11475 10.036 8.99521V8.99521Z" fill="#4294FF"/>
<path d="M6.5625 19.6875H3.9375C3.76345 19.6875 3.59653 19.6184 3.47346 19.4953C3.35039 19.3722 3.28125 19.2053 3.28125 19.0312C3.28125 18.8572 3.35039 18.6903 3.47346 18.5672C3.59653 18.4441 3.76345 18.375 3.9375 18.375H6.5625C6.73655 18.375 6.90347 18.4441 7.02654 18.5672C7.14961 18.6903 7.21875 18.8572 7.21875 19.0312C7.21875 19.2053 7.14961 19.3722 7.02654 19.4953C6.90347 19.6184 6.73655 19.6875 6.5625 19.6875Z" fill="#4294FF"/>
<path d="M21.6563 9.84375C21.6558 10.0176 21.5865 10.1843 21.4635 10.3072C21.3405 10.4302 21.1739 10.4995 21 10.5C18.9405 10.501 16.951 11.247 15.3986 12.6004C13.8462 13.9537 12.8359 15.823 12.5541 17.8631C12.331 16.8459 12.1735 15.855 12.0619 14.9034C12.852 13.1978 14.1131 11.7536 15.6967 10.7409C17.2803 9.72819 19.1203 9.18922 21 9.1875C21.1739 9.188 21.3405 9.2573 21.4635 9.38027C21.5865 9.50323 21.6558 9.66986 21.6563 9.84375V9.84375Z" fill="#4294FF"/>
<path d="M24.7452 23.8173C24.6843 23.7563 24.612 23.708 24.5324 23.675C24.4528 23.642 24.3674 23.625 24.2812 23.625C24.1951 23.625 24.1097 23.642 24.0301 23.675C23.9505 23.708 23.8782 23.7563 23.8173 23.8173L21 26.6345L18.1827 23.8173C18.0589 23.6978 17.8932 23.6316 17.7211 23.6331C17.549 23.6346 17.3844 23.7036 17.2628 23.8253C17.1411 23.947 17.0721 24.1116 17.0706 24.2836C17.0691 24.4557 17.1352 24.6215 17.2548 24.7452L20.3437 27.8343V31.5C20.3437 31.6741 20.4129 31.841 20.536 31.9641C20.659 32.0871 20.8259 32.1563 21 32.1563C21.174 32.1563 21.341 32.0871 21.464 31.9641C21.5871 31.841 21.6562 31.6741 21.6562 31.5V27.8343L24.7452 24.7452C24.8062 24.6843 24.8545 24.612 24.8875 24.5324C24.9205 24.4528 24.9375 24.3675 24.9375 24.2813C24.9375 24.1951 24.9205 24.1098 24.8875 24.0302C24.8545 23.9505 24.8062 23.8782 24.7452 23.8173V23.8173Z" fill="#4294FF"/>
<path d="M24.9375 34.125H17.0625C16.8885 34.125 16.7215 34.1941 16.5985 34.3172C16.4754 34.4403 16.4062 34.6072 16.4062 34.7812V36.0938C16.4062 37.3121 16.8902 38.4805 17.7517 39.342C18.6132 40.2035 19.7817 40.6875 21 40.6875C22.2183 40.6875 23.3868 40.2035 24.2483 39.342C25.1098 38.4805 25.5938 37.3121 25.5938 36.0938V34.7812C25.5938 34.6072 25.5246 34.4403 25.4015 34.3172C25.2785 34.1941 25.1115 34.125 24.9375 34.125Z" fill="#578BFF"/>
<path d="M25.5937 34.965V36.0938C25.5961 36.3136 25.5785 36.5333 25.5412 36.75H16.4587C16.4215 36.5333 16.4039 36.3136 16.4062 36.0938V34.7812H25.2591C25.3706 34.8469 25.4822 34.9059 25.5937 34.965Z" fill="#578BFF"/>
<path d="M27.5625 30.8438V34.7812C27.562 34.9551 27.4927 35.1218 27.3697 35.2447C27.2468 35.3677 27.0801 35.437 26.9062 35.4375H15.0938C14.9199 35.437 14.7532 35.3677 14.6303 35.2447C14.5073 35.1218 14.438 34.9551 14.4375 34.7812V30.8438H27.5625Z" fill="#4294FF"/>
<path d="M27.5625 30.8438V34.7812C27.562 34.9551 27.4927 35.1218 27.3697 35.2447C27.2468 35.3677 27.0802 35.437 26.9063 35.4375H26.4994C24.0547 34.2431 21.7993 32.6953 19.8056 30.8438H27.5625Z" fill="#4294FF"/>
</svg>
