<svg width="42" height="42" viewBox="0 0 42 42" fill="none" xmlns="http://www.w3.org/2000/svg">
<path d="M38.0627 3.9375H3.93767C3.21279 3.9375 2.62517 4.52513 2.62517 5.25V28.875C2.62517 29.5999 3.21279 30.1875 3.93767 30.1875H38.0627C38.7875 30.1875 39.3752 29.5999 39.3752 28.875V5.25C39.3752 4.52513 38.7875 3.9375 38.0627 3.9375Z" fill="#E6ECFF"/>
<path d="M30.1875 35.4375C29.1436 35.4364 28.1427 35.0211 27.4045 34.283C26.6664 33.5448 26.2511 32.5439 26.25 31.5V28.875C26.25 28.5269 26.1117 28.1931 25.8656 27.9469C25.6194 27.7008 25.2856 27.5625 24.9375 27.5625H17.0625C16.7144 27.5625 16.3806 27.7008 16.1344 27.9469C15.8883 28.1931 15.75 28.5269 15.75 28.875V31.5C15.7489 32.5439 15.3336 33.5448 14.5955 34.283C13.8573 35.0211 12.8564 35.4364 11.8125 35.4375C11.4644 35.4375 11.1306 35.5758 10.8844 35.8219C10.6383 36.0681 10.5 36.4019 10.5 36.75C10.5 37.0981 10.6383 37.4319 10.8844 37.6781C11.1306 37.9242 11.4644 38.0625 11.8125 38.0625H30.1875C30.5356 38.0625 30.8694 37.9242 31.1156 37.6781C31.3617 37.4319 31.5 37.0981 31.5 36.75C31.5 36.4019 31.3617 36.0681 31.1156 35.8219C30.8694 35.5758 30.5356 35.4375 30.1875 35.4375Z" fill="#578BFF"/>
<path d="M39.375 27.7594V28.875C39.374 29.2228 39.2354 29.556 38.9895 29.802C38.7435 30.0479 38.4103 30.1865 38.0625 30.1875H3.9375C3.58971 30.1865 3.25646 30.0479 3.01053 29.802C2.76461 29.556 2.626 29.2228 2.625 28.875V5.25C2.62354 4.94301 2.73082 4.64542 2.92782 4.40998C3.12482 4.17454 3.39882 4.01646 3.70125 3.96375C8.3475 13.2956 18.4013 25.7381 39.375 27.7594Z" fill="#C8D5F8"/>
<path d="M15.75 21C15.4019 21 15.0681 20.8617 14.8219 20.6156C14.5758 20.3694 14.4375 20.0356 14.4375 19.6875V14.4375C14.4375 14.0894 14.5758 13.7556 14.8219 13.5094C15.0681 13.2633 15.4019 13.125 15.75 13.125C16.0981 13.125 16.4319 13.2633 16.6781 13.5094C16.9242 13.7556 17.0625 14.0894 17.0625 14.4375V19.6875C17.0625 20.0356 16.9242 20.3694 16.6781 20.6156C16.4319 20.8617 16.0981 21 15.75 21Z" fill="#4294FF"/>
<path d="M31.5 21C31.1519 21 30.8181 20.8617 30.5719 20.6156C30.3258 20.3694 30.1875 20.0356 30.1875 19.6875V14.4375C30.1875 14.0894 30.3258 13.7556 30.5719 13.5094C30.8181 13.2633 31.1519 13.125 31.5 13.125C31.8481 13.125 32.1819 13.2633 32.4281 13.5094C32.6742 13.7556 32.8125 14.0894 32.8125 14.4375V19.6875C32.8125 20.0356 32.6742 20.3694 32.4281 20.6156C32.1819 20.8617 31.8481 21 31.5 21Z" fill="#4294FF"/>
<path d="M10.5 21C10.1519 21 9.81806 20.8617 9.57192 20.6156C9.32578 20.3694 9.1875 20.0356 9.1875 19.6875V17.0625C9.1875 16.7144 9.32578 16.3806 9.57192 16.1344C9.81806 15.8883 10.1519 15.75 10.5 15.75C10.8481 15.75 11.1819 15.8883 11.4281 16.1344C11.6742 16.3806 11.8125 16.7144 11.8125 17.0625V19.6875C11.8125 20.0356 11.6742 20.3694 11.4281 20.6156C11.1819 20.8617 10.8481 21 10.5 21V21Z" fill="#578BFF"/>
<path d="M26.25 21C25.9019 21 25.5681 20.8617 25.3219 20.6156C25.0758 20.3694 24.9375 20.0356 24.9375 19.6875V11.8125C24.9375 11.4644 25.0758 11.1306 25.3219 10.8844C25.5681 10.6383 25.9019 10.5 26.25 10.5C26.5981 10.5 26.9319 10.6383 27.1781 10.8844C27.4242 11.1306 27.5625 11.4644 27.5625 11.8125V19.6875C27.5625 20.0356 27.4242 20.3694 27.1781 20.6156C26.9319 20.8617 26.5981 21 26.25 21Z" fill="#4294FF"/>
<path d="M21 21C20.6519 21 20.3181 20.8617 20.0719 20.6156C19.8258 20.3694 19.6875 20.0356 19.6875 19.6875V9.1875C19.6875 8.8394 19.8258 8.50556 20.0719 8.25942C20.3181 8.01328 20.6519 7.875 21 7.875C21.3481 7.875 21.6819 8.01328 21.9281 8.25942C22.1742 8.50556 22.3125 8.8394 22.3125 9.1875V19.6875C22.3125 20.0356 22.1742 20.3694 21.9281 20.6156C21.6819 20.8617 21.3481 21 21 21Z" fill="#4294FF"/>
<path d="M17.0494 19.8319C17.0133 20.1654 16.8506 20.4723 16.5949 20.6894C16.3391 20.9065 16.0099 21.0172 15.6749 20.9986C15.34 20.9801 15.025 20.8338 14.7947 20.5899C14.5645 20.3459 14.4366 20.0229 14.4375 19.6875V17.8106C15.2644 18.5062 16.1306 19.1756 17.0494 19.8319Z" fill="#4294FF"/>
<path d="M39.375 24.9375V28.875C39.374 29.2228 39.2354 29.556 38.9895 29.802C38.7435 30.0479 38.4103 30.1865 38.0625 30.1875H3.9375C3.58971 30.1865 3.25646 30.0479 3.01053 29.802C2.76461 29.556 2.626 29.2228 2.625 28.875V24.9375H39.375Z" fill="#4294FF"/>
<path d="M39.375 27.7594V28.875C39.374 29.2228 39.2354 29.556 38.9895 29.802C38.7435 30.0479 38.4103 30.1865 38.0625 30.1875H3.9375C3.58971 30.1865 3.25646 30.0479 3.01053 29.802C2.76461 29.556 2.626 29.2228 2.625 28.875V24.9375H26.7225C30.8007 26.4198 35.0535 27.3683 39.375 27.7594V27.7594Z" fill="#578BFF"/>
</svg>
