<svg width="42" height="42" viewBox="0 0 42 42" fill="none" xmlns="http://www.w3.org/2000/svg">
<path d="M7.875 11.8125H6.5625C5.51821 11.8125 4.51669 12.2273 3.77827 12.9658C3.03984 13.7042 2.625 14.7057 2.625 15.75C2.625 16.7943 3.03984 17.7958 3.77827 18.5342C4.51669 19.2727 5.51821 19.6875 6.5625 19.6875H7.875C8.2231 19.6875 8.55694 19.5492 8.80308 19.3031C9.04922 19.0569 9.1875 18.7231 9.1875 18.375V13.125C9.1875 12.7769 9.04922 12.4431 8.80308 12.1969C8.55694 11.9508 8.2231 11.8125 7.875 11.8125Z" fill="#4294FF"/>
<path d="M21.5119 34.8731C21.051 35.5329 20.4178 36.0534 19.6812 36.3777C18.9446 36.702 18.1331 36.8177 17.3352 36.712C16.5374 36.6063 15.784 36.2835 15.1572 35.7786C14.5304 35.2738 14.0544 34.6064 13.7812 33.8494L9.58124 22.3125H18.9394L22.0369 30.8569C22.2823 31.5186 22.3628 32.2301 22.2713 32.93C22.1799 33.6298 21.9192 34.2968 21.5119 34.8731Z" fill="#578BFF"/>
<path d="M21 9.1875H7.875C7.15013 9.1875 6.5625 9.77513 6.5625 10.5V21C6.5625 21.7249 7.15013 22.3125 7.875 22.3125H21C21.7249 22.3125 22.3125 21.7249 22.3125 21V10.5C22.3125 9.77513 21.7249 9.1875 21 9.1875Z" fill="#E6ECFF"/>
<path d="M35.4375 11.8125H32.8125C32.4644 11.8125 32.1306 11.9508 31.8844 12.1969C31.6383 12.4431 31.5 12.7769 31.5 13.125V18.375C31.5 18.7231 31.6383 19.0569 31.8844 19.3031C32.1306 19.5492 32.4644 19.6875 32.8125 19.6875H35.4375C36.4818 19.6875 37.4833 19.2727 38.2217 18.5342C38.9602 17.7958 39.375 16.7943 39.375 15.75C39.375 14.7057 38.9602 13.7042 38.2217 12.9658C37.4833 12.2273 36.4818 11.8125 35.4375 11.8125Z" fill="#578BFF"/>
<path d="M22.3125 18.585V21C22.3115 21.3478 22.1729 21.6811 21.927 21.927C21.681 22.1729 21.3478 22.3115 21 22.3125H7.875C7.52721 22.3115 7.19396 22.1729 6.94803 21.927C6.70211 21.6811 6.5635 21.3478 6.5625 21V20.1863C11.8655 20.5587 17.193 20.0171 22.3125 18.585Z" fill="#C8D5F8"/>
<path d="M33.62 5.52813C33.4632 5.40453 33.2801 5.31872 33.0848 5.27739C32.8895 5.23605 32.6873 5.24029 32.494 5.28978L21.994 7.91478C21.7101 7.98579 21.4582 8.1496 21.2781 8.38019C21.098 8.61078 21.0001 8.89494 21 9.18752V22.3125C21 22.6052 21.0979 22.8894 21.278 23.1201C21.458 23.3507 21.7101 23.5146 21.994 23.5856L32.494 26.2106C32.5981 26.237 32.7051 26.2503 32.8125 26.25C33.1605 26.2498 33.4943 26.1115 33.7404 25.8654C33.9865 25.6193 34.1248 25.2856 34.125 24.9375V6.56252C34.1249 6.36307 34.0794 6.16626 33.9919 5.98704C33.9043 5.80781 33.7772 5.65087 33.62 5.52813Z" fill="#E6ECFF"/>
<path d="M34.125 10.6707V24.9375C34.1268 25.1104 34.094 25.2818 34.0287 25.4419C33.9633 25.6019 33.8667 25.7473 33.7445 25.8695C33.6223 25.9917 33.4769 26.0884 33.3168 26.1537C33.1568 26.219 32.9854 26.2518 32.8125 26.25C32.7063 26.2499 32.6005 26.2367 32.4975 26.2107L21.9975 23.5857C21.7124 23.5164 21.4589 23.3531 21.2779 23.1221C21.0969 22.8912 20.999 22.606 21 22.3125V18.9525C27.5494 17.2594 31.605 14.1094 34.125 10.6707Z" fill="#C8D5F8"/>
</svg>
