<svg width="10" height="10" viewBox="0 0 10 10" fill="none" xmlns="http://www.w3.org/2000/svg">
<path d="M8.75 1.66667H7.5V0.833333C7.5 0.61232 7.4122 0.400358 7.25592 0.244078C7.09964 0.0877974 6.88768 0 6.66667 0L3.33333 0C3.11232 0 2.90036 0.0877974 2.74408 0.244078C2.5878 0.400358 2.5 0.61232 2.5 0.833333V1.66667H1.25C0.918479 1.66667 0.600537 1.79836 0.366116 2.03278C0.131696 2.2672 0 2.58515 0 2.91667L0 10H10V2.91667C10 2.58515 9.8683 2.2672 9.63388 2.03278C9.39946 1.79836 9.08152 1.66667 8.75 1.66667ZM3.33333 0.833333H6.66667V1.66667H3.33333V0.833333ZM1.25 2.5H8.75C8.86051 2.5 8.96649 2.5439 9.04463 2.62204C9.12277 2.70018 9.16667 2.80616 9.16667 2.91667V5H0.833333V2.91667C0.833333 2.80616 0.877232 2.70018 0.955372 2.62204C1.03351 2.5439 1.13949 2.5 1.25 2.5ZM0.833333 9.16667V5.83333H4.58333V6.66667H5.41667V5.83333H9.16667V9.16667H0.833333Z" fill="#A0ABB8"/>
</svg>
