<svg width="13" height="13" viewBox="0 0 13 13" fill="none" xmlns="http://www.w3.org/2000/svg">
<g clip-path="url(#clip0_1933_434)">
<path d="M6.50002 13.0043L6.12085 12.6793C5.59814 12.2416 1.03406 8.29993 1.03406 5.41664C1.03406 3.96698 1.60993 2.57669 2.635 1.55163C3.66007 0.52656 5.05035 -0.0493164 6.50002 -0.0493164C7.94968 -0.0493164 9.33996 0.52656 10.365 1.55163C11.3901 2.57669 11.966 3.96698 11.966 5.41664C11.966 8.29993 7.40189 12.2416 6.88135 12.6815L6.50002 13.0043ZM6.50002 1.1326C5.36421 1.13389 4.2753 1.58566 3.47217 2.38879C2.66903 3.19193 2.21726 4.28084 2.21597 5.41664C2.21597 7.22797 5.02397 10.1216 6.50002 11.4459C7.97606 10.121 10.7841 7.22581 10.7841 5.41664C10.7828 4.28084 10.331 3.19193 9.52786 2.38879C8.72473 1.58566 7.63582 1.13389 6.50002 1.1326Z" fill="#A0ABB8"/>
<path d="M6.49998 7.58333C6.07145 7.58333 5.65255 7.45626 5.29625 7.21819C4.93994 6.98011 4.66223 6.64172 4.49824 6.24582C4.33425 5.84991 4.29134 5.41426 4.37495 4.99397C4.45855 4.57368 4.6649 4.18762 4.96792 3.8846C5.27093 3.58159 5.65699 3.37523 6.07729 3.29163C6.49758 3.20803 6.93322 3.25094 7.32913 3.41493C7.72504 3.57892 8.06342 3.85663 8.3015 4.21293C8.53957 4.56924 8.66665 4.98814 8.66665 5.41667C8.66665 5.9913 8.43837 6.5424 8.03205 6.94873C7.62572 7.35506 7.07462 7.58333 6.49998 7.58333ZM6.49998 4.33333C6.28572 4.33333 6.07627 4.39687 5.89811 4.51591C5.71996 4.63495 5.58111 4.80414 5.49911 5.00209C5.41712 5.20005 5.39566 5.41787 5.43746 5.62802C5.47926 5.83816 5.58244 6.03119 5.73395 6.1827C5.88546 6.33421 6.07849 6.43738 6.28863 6.47919C6.49878 6.52099 6.7166 6.49953 6.91455 6.41754C7.11251 6.33554 7.2817 6.19669 7.40074 6.01854C7.51978 5.84038 7.58331 5.63093 7.58331 5.41667C7.58331 5.12935 7.46918 4.8538 7.26601 4.65064C7.06285 4.44747 6.7873 4.33333 6.49998 4.33333Z" fill="#A0ABB8"/>
</g>
<defs>
<clipPath id="clip0_1933_434">
<rect width="13" height="13" fill="white"/>
</clipPath>
</defs>
</svg>
