<svg width="12" height="12" viewBox="0 0 12 12" fill="none" xmlns="http://www.w3.org/2000/svg">
<g clip-path="url(#clip0_1933_456)">
<path d="M6 12C4.81331 12 3.65328 11.6481 2.66658 10.9888C1.67989 10.3295 0.910851 9.39246 0.456726 8.2961C0.00259972 7.19975 -0.11622 5.99335 0.115291 4.82946C0.346802 3.66558 0.918247 2.59648 1.75736 1.75736C2.59648 0.918247 3.66558 0.346802 4.82946 0.115291C5.99335 -0.11622 7.19975 0.00259972 8.2961 0.456726C9.39246 0.910851 10.3295 1.67989 10.9888 2.66658C11.6481 3.65328 12 4.81331 12 6C11.9983 7.59077 11.3656 9.1159 10.2407 10.2407C9.1159 11.3656 7.59077 11.9983 6 12ZM6 1C5.0111 1 4.0444 1.29325 3.22215 1.84265C2.39991 2.39206 1.75904 3.17296 1.38061 4.08659C1.00217 5.00022 0.90315 6.00555 1.09608 6.97545C1.289 7.94536 1.76521 8.83627 2.46447 9.53554C3.16373 10.2348 4.05465 10.711 5.02455 10.9039C5.99446 11.0969 6.99979 10.9978 7.91342 10.6194C8.82705 10.241 9.60794 9.6001 10.1574 8.77785C10.7068 7.95561 11 6.98891 11 6C10.9985 4.67437 10.4713 3.40344 9.53393 2.46608C8.59656 1.52871 7.32564 1.00146 6 1Z" fill="#A0ABB8"/>
<path d="M3.97349 7.799L3.44299 6.951L5.49999 5.6625V3H6.49999V6.2165L3.97349 7.799Z" fill="#A0ABB8"/>
</g>
<defs>
<clipPath id="clip0_1933_456">
<rect width="12" height="12" fill="white"/>
</clipPath>
</defs>
</svg>
