<svg width="16" height="16" viewBox="0 0 16 16" fill="none" xmlns="http://www.w3.org/2000/svg">
<path d="M5.75001 8.00001L7.25001 9.50001L10.25 6.50001M4.87626 2.52276C5.41424 2.47982 5.92497 2.26829 6.33576 1.91826C6.79994 1.52246 7.38999 1.30505 8.00001 1.30505C8.61003 1.30505 9.20008 1.52246 9.66426 1.91826C10.0751 2.26829 10.5858 2.47982 11.1238 2.52276C11.7318 2.57114 12.3027 2.83463 12.7341 3.26595C13.1654 3.69728 13.4289 4.2682 13.4773 4.87626C13.5202 5.41424 13.7317 5.92497 14.0818 6.33576C14.4776 6.79994 14.695 7.38999 14.695 8.00001C14.695 8.61003 14.4776 9.20008 14.0818 9.66426C13.7317 10.0751 13.5202 10.5858 13.4773 11.1238C13.4289 11.7318 13.1654 12.3027 12.7341 12.7341C12.3027 13.1654 11.7318 13.4289 11.1238 13.4773C10.5858 13.5202 10.0751 13.7317 9.66426 14.0818C9.20008 14.4776 8.61003 14.695 8.00001 14.695C7.38999 14.695 6.79994 14.4776 6.33576 14.0818C5.92497 13.7317 5.41424 13.5202 4.87626 13.4773C4.2682 13.4289 3.69728 13.1654 3.26595 12.7341C2.83463 12.3027 2.57114 11.7318 2.52276 11.1238C2.47982 10.5858 2.26829 10.0751 1.91826 9.66426C1.52246 9.20008 1.30505 8.61003 1.30505 8.00001C1.30505 7.38999 1.52246 6.79994 1.91826 6.33576C2.26829 5.92497 2.47982 5.41424 2.52276 4.87626C2.57114 4.2682 2.83463 3.69728 3.26595 3.26595C3.69728 2.83463 4.2682 2.57114 4.87626 2.52276V2.52276Z" stroke="white" stroke-width="1.58333" stroke-linecap="round" stroke-linejoin="round"/>
</svg>
