<svg width="30" height="30" viewBox="0 0 30 30" fill="none" xmlns="http://www.w3.org/2000/svg">
<path d="M19.8862 15.154L29.9999 21.5477V8.49023L19.8862 15.154Z" fill="#66789C"/>
<path d="M0 8.49023V21.5477L10.1138 15.154L0 8.49023Z" fill="#66789C"/>
<path d="M28.1234 4.6875H1.87344C0.937813 4.6875 0.195312 5.385 0.0546875 6.28313L14.9984 16.1287L29.9422 6.28313C29.8016 5.385 29.0591 4.6875 28.1234 4.6875Z" fill="#66789C"/>
<path d="M18.1673 16.2861L15.5142 18.0336C15.3567 18.1367 15.1786 18.1873 14.9986 18.1873C14.8186 18.1873 14.6405 18.1367 14.483 18.0336L11.8298 16.2842L0.0585938 23.7298C0.202969 24.6204 0.941719 25.3123 1.87359 25.3123H28.1236C29.0555 25.3123 29.7942 24.6204 29.9386 23.7298L18.1673 16.2861Z" fill="#66789C"/>
</svg>
